# xmcd CD database file
#
# Track frame offsets:
#	150
#	22881
#	50040
#	67125
#	89885
#	101886
#	125352
#	146784
#	174215
#	197549
#	220478
#	250031
#	253151
#
# Disc length: 3586 seconds
#
# Revision: 3
# Processed by: cddbd v1.5.1PL2 Copyright (c) Steve Scherf et al.
# Submitted via: CDex 1.51
#
DISCID=c80e000d
DTITLE=LOVE PSYCHEDELICO - LOVE PSYCHEDELICO ?
DYEAR=2004
DGENRE=JPop
TTITLE0=Everybody needs somebody
TTITLE1=Mind across the universe
TTITLE2=My last fight
TTITLE3=all over love
TTITLE4=Happiness
TTITLE5=I am waiting for you
TTITLE6=fleeing star
TTITLE7=裸の王様
TTITLE8=Silver dust lane
TTITLE9=Hello
TTITLE10=neverland
TTITLE11=?
TTITLE12=GRAPEFRUITS
EXTD=YEAR: 2004
EXTT0=
EXTT1=
EXTT2=
EXTT3=
EXTT4=
EXTT5=
EXTT6=
EXTT7=
EXTT8=
EXTT9=
EXTT10=
EXTT11=
EXTT12=
PLAYORDER=
